<svg xmlns="http://www.w3.org/2000/svg" viewBox="0 0 192.76 113.41"><defs><style>.cls-1{fill:#e00;}</style></defs><title>bg-active</title><g id="Capa_2" data-name="Capa 2"><g id="Capa_1-2" data-name="Capa 1"><path class="cls-1" d="M192.76,113.41H0A22.4,22.4,0,0,0,22.31,93.07a18.86,18.86,0,0,0,.1-2.06V37a37.77,37.77,0,0,1,.43-5.64c.09-.61.2-1.22.32-1.82a38.07,38.07,0,0,1,1.19-4.41,37.53,37.53,0,0,1,3.42-7.33c.31-.51.63-1,1-1.5.5-.74,1-1.45,1.57-2.16a37.31,37.31,0,0,1,3-3.32A36.87,36.87,0,0,1,57.54,0c.6,0,1.2,0,1.81,0h74c.64,0,1.28,0,1.91,0a36.87,36.87,0,0,1,24.27,10.8,37.31,37.31,0,0,1,3,3.32c.55.7,1.07,1.42,1.57,2.16.33.49.65,1,1,1.5a37.53,37.53,0,0,1,3.42,7.33,38.08,38.08,0,0,1,1.19,4.41c.12.6.23,1.21.32,1.82a37.77,37.77,0,0,1,.43,5.64V91a18.86,18.86,0,0,0,.1,2.06A22.4,22.4,0,0,0,192.76,113.41Z"/></g></g></svg>