<svg xmlns="http://www.w3.org/2000/svg" viewBox="0 0 240.36 85.09"><defs><style>.cls-1{fill:#d90466;}.cls-2{fill:none;}</style></defs><title>logo</title><g id="Capa_2" data-name="Capa 2"><g id="Capa_1-2" data-name="Capa 1"><path class="cls-1" d="M23,31.18H4.52a.33.33,0,0,0-.33.33v2.33a.33.33,0,0,0,.33.33H12V53.58a.33.33,0,0,0,.33.33h2.75a.33.33,0,0,0,.33-.33V34.17H23a.33.33,0,0,0,.33-.33V31.51A.33.33,0,0,0,23,31.18Z"/><path class="cls-1" d="M44.62,50.92H30.92v-7H42.73a.33.33,0,0,0,.33-.33V41.25a.33.33,0,0,0-.33-.33H30.92V34.17H44.18a.33.33,0,0,0,.33-.33V31.51a.33.33,0,0,0-.33-.33H27.84a.33.33,0,0,0-.33.33V53.58a.33.33,0,0,0,.33.33H44.62a.33.33,0,0,0,.33-.33V51.25A.33.33,0,0,0,44.62,50.92Z"/><path class="cls-1" d="M71.11,31.18H68.4a.33.33,0,0,0-.33.33v17L54.21,31.3a.33.33,0,0,0-.26-.12H51.1a.33.33,0,0,0-.33.33V53.58a.33.33,0,0,0,.33.33h2.75a.33.33,0,0,0,.33-.33v-17L68,53.79a.33.33,0,0,0,.26.12h2.82a.33.33,0,0,0,.33-.33V31.51A.33.33,0,0,0,71.11,31.18Z"/><path class="cls-1" d="M89,31.18H79.31a.33.33,0,0,0-.33.33V53.58a.33.33,0,0,0,.33.33h9.63c7.3,0,12.81-4.89,12.81-11.37S96.29,31.18,89,31.18Zm0,19.75H82.39V34.17H89c5.23,0,9.33,3.69,9.33,8.41S94.34,50.92,89.08,50.92Z"/><path class="cls-1" d="M124.09,50.92h-13.7v-7H122.2a.33.33,0,0,0,.33-.33V41.25a.33.33,0,0,0-.33-.33H110.39V34.17h13.26a.33.33,0,0,0,.33-.33V31.51a.33.33,0,0,0-.33-.33H107.31a.33.33,0,0,0-.33.33V53.58a.33.33,0,0,0,.33.33h16.78a.33.33,0,0,0,.33-.33V51.25A.33.33,0,0,0,124.09,50.92Z"/><path class="cls-1" d="M150.59,31.18h-2.72a.33.33,0,0,0-.33.33v17L133.68,31.3a.33.33,0,0,0-.26-.12h-2.85a.33.33,0,0,0-.33.33V53.58a.33.33,0,0,0,.33.33h2.75a.33.33,0,0,0,.33-.33v-17l13.86,17.19a.33.33,0,0,0,.26.12h2.82a.33.33,0,0,0,.33-.33V31.51A.33.33,0,0,0,150.59,31.18Z"/><path class="cls-1" d="M176.45,48.43a.32.32,0,0,0-.45,0A10.66,10.66,0,0,1,169.1,51c-5.22,0-9.47-3.8-9.47-8.47s4.25-8.44,9.47-8.44a10.29,10.29,0,0,1,6.9,2.66.38.38,0,0,0,.24.09.34.34,0,0,0,.23-.11l1.65-1.83a.34.34,0,0,0,.08-.24.33.33,0,0,0-.11-.23,14,14,0,0,0-9-3.3c-7.23,0-12.88,5-12.88,11.4S161.79,54,169,54a14.22,14.22,0,0,0,9.16-3.42.33.33,0,0,0,0-.48Z"/><path class="cls-1" d="M205,31.18h-2.86a.33.33,0,0,0-.3.18L191.1,53.44a.33.33,0,0,0,.3.47h2.92a.33.33,0,0,0,.3-.19l2.59-5.46H209.9l2.63,5.46a.33.33,0,0,0,.3.18h3a.33.33,0,0,0,.3-.47L205.34,31.36A.33.33,0,0,0,205,31.18Zm3.43,14.1h-9.82L203.54,35Z"/><path class="cls-1" d="M228.06,40.87c-3-.85-5.68-1.59-5.68-4,0-1.67,1.84-2.7,4.8-2.7A13.14,13.14,0,0,1,233.64,36a.34.34,0,0,0,.26,0,.31.31,0,0,0,.2-.16l1.17-2.24a.33.33,0,0,0-.12-.43,15.45,15.45,0,0,0-7.81-2.1c-5.26,0-8.65,2.36-8.65,6,0,4.5,4.12,5.63,7.75,6.62,3.1.85,5.78,1.58,5.76,4.07,0,1.92-2,3.11-5.31,3.11a12.39,12.39,0,0,1-7.8-3,.33.33,0,0,0-.27-.08.32.32,0,0,0-.23.16l-1.24,2.18a.33.33,0,0,0,.07.41A14.69,14.69,0,0,0,226.86,54c5.4,0,9-2.55,9-6.35C235.91,43.07,231.74,41.9,228.06,40.87Z"/><circle class="cls-1" cx="191.35" cy="1.92" r="1.92" transform="translate(1.93 29.11) rotate(-8.74)"/><circle class="cls-1" cx="194.33" cy="3.74" r="1.24" transform="translate(1.69 29.58) rotate(-8.74)"/><path class="cls-1" d="M223.92,18.77c-4.24-5-19.08-11.31-31-9.75a3,3,0,0,0-.55-4.34,2.21,2.21,0,0,0-1.88-.33c-1,.33-1.6,1.58-2.15,2.83a.21.21,0,0,1-.23.13A73.1,73.1,0,0,0,177.72,6a.32.32,0,0,0-.31.13.26.26,0,0,0,0,.27.33.33,0,0,0,.3.18,34.56,34.56,0,0,1,8.16,1.68c-3.88.19-8.93,2.26-11.42,3.62a.37.37,0,0,0-.24.31.29.29,0,0,0,.13.26.37.37,0,0,0,.38,0,22.34,22.34,0,0,1,11.86-1.84,1.08,1.08,0,0,0,1.11-.54c.52-.93.9-1.29,1.09-1.31,0,0,.06,0,.13.06.33.39.21.63-.39,1.72-8.53,25.31-1.19,54.38-1,55.4s1.73,1.25,1.46-.55c-7.47-34.57.2-46,.48-46.4a2.36,2.36,0,0,0,.24-1.48,4.46,4.46,0,0,1,.6-3.18.07.07,0,0,1,.06,0h0l0,0a1.23,1.23,0,0,0,1.66.54,2.81,2.81,0,0,1,.49-.16l.16,0c5.48-.84,16.69,5.42,18.56,9.56a1.44,1.44,0,0,1-.28,1.92c-3.77,2.22-8.54-.23-15.48-8A.37.37,0,0,0,195,18a.3.3,0,0,0,0,.43c3.11,5.13,8.41,9.27,13.23,10a5.2,5.2,0,0,0,4.45-1.07,2.68,2.68,0,0,0,.67-2.71c-1.45-5.14-14.39-11-21.23-12.87a.77.77,0,0,1-.61-.7.64.64,0,0,1,.54-.62,15.16,15.16,0,0,1,2-.45c9.6-1.48,23.91,4.67,27.57,8.87.5.58,1,1.4.75,2-.51,1.1-4.07,1.07-9.56-.09a.43.43,0,0,0-.49.3c0,.17,0,.41.4.54,3.43,1.41,8.69,2.23,11.06,1.21a2,2,0,0,0,1.18-1.1C225.21,20.89,224.87,19.89,223.92,18.77Z"/><path class="cls-1" d="M186.33,11.58a.31.31,0,0,0-.44,0l-1.22,1c-.78.65-1.85,1.55-3.19,2.6-1.7,1.36-3.16,2.47-4.62,3.5A37.29,37.29,0,0,1,171.29,22a10.79,10.79,0,0,1-2.9,1h0a3.18,3.18,0,0,1-1.25,0,1.18,1.18,0,0,1-.69-.45c-.21-.29-.05-1.09.38-1.95a15.57,15.57,0,0,1,1.4-2.15,39.51,39.51,0,0,1,2.65-3.05L172,14.21a.32.32,0,0,0,0-.36.31.31,0,0,0-.19-.15.28.28,0,0,0-.24,0s-.53.28-1.37.85a20.43,20.43,0,0,0-3.26,2.74,12.26,12.26,0,0,0-1.81,2.34,6.09,6.09,0,0,0-.69,1.63,3.06,3.06,0,0,0,.24,2.26,2.62,2.62,0,0,0,.85.91,3.11,3.11,0,0,0,.54.3,3.57,3.57,0,0,0,.52.18,5.24,5.24,0,0,0,2.06.06,12.18,12.18,0,0,0,3.49-1.2A33.61,33.61,0,0,0,177.88,20c1.85-1.45,3.42-2.92,4.44-3.89,1.26-1.22,2.27-2.26,2.93-3L186.32,12A.31.31,0,0,0,186.33,11.58Z"/><path class="cls-1" d="M168.12,12l.67-.09.79-.12.69-.11a.32.32,0,0,0,.25-.29.32.32,0,0,0-.3-.33s-.56,0-1.5,0h-.35c-.92,0-2.15,0-3.57,0h-.75c-.59,0-1.21,0-1.85,0h-.08A24,24,0,0,1,159.4,11a7.79,7.79,0,0,1-1.34-.27,1.51,1.51,0,0,1-.83-.51.36.36,0,0,1,0-.1l0-.1s0-.09,0-.13a.6.6,0,0,1,.08-.27,2.35,2.35,0,0,1,.87-.73,12.91,12.91,0,0,1,2.81-1c1-.25,2-.43,3-.58,1.66-.27,3.44-.47,5.44-.62,1.49-.13,2.87-.22,3.89-.26l1.49-.08A.3.3,0,0,0,175,6a.32.32,0,0,0-.28-.34s-2.21-.23-5.45-.25c-2.09,0-3.87.11-5.6.28-1.09.12-2.15.29-3.16.5a12.72,12.72,0,0,0-3.27,1.11,3.94,3.94,0,0,0-1.55,1.36,2.25,2.25,0,0,0-.32,1.31v.08a2.26,2.26,0,0,0,.09.44,2,2,0,0,0,.28.61,3.13,3.13,0,0,0,1.77,1.2,8.07,8.07,0,0,0,1.69.31,21.8,21.8,0,0,0,3,0c1.07-.07,1.91-.14,2.64-.22C166.16,12.3,167.25,12.14,168.12,12Z"/><rect class="cls-2" width="240.36" height="85.09"/></g></g></svg>