<svg xmlns="http://www.w3.org/2000/svg" viewBox="0 0 30.33 24.52"><defs><style>.cls-1{opacity:0.5;}.cls-2{fill:#666;}</style></defs><title>portafolio</title><g id="Capa_2" data-name="Capa 2"><g id="Capa_1-2" data-name="Capa 1"><g id="_Grupo_" data-name="&lt;Grupo&gt;" class="cls-1"><path class="cls-2" d="M20.73,1.65V3H9.6V1.65A1.66,1.66,0,0,1,11.25,0h7.83A1.66,1.66,0,0,1,20.73,1.65Z"/><g id="_Grupo_2" data-name="&lt;Grupo&gt;"><path class="cls-2" d="M30.33,16.49v5.4a2.64,2.64,0,0,1-2.64,2.64H2.64A2.64,2.64,0,0,1,0,21.89v-5.4a8.67,8.67,0,0,0,4.66,1.34H7v1.84a1.47,1.47,0,0,0,1.47,1.47h2.28a1.47,1.47,0,0,0,1.47-1.47V17.83h5.95v1.84a1.47,1.47,0,0,0,1.47,1.47h2.28a1.47,1.47,0,0,0,1.47-1.47V17.83h2.31A8.68,8.68,0,0,0,30.33,16.49Z"/><path class="cls-2" d="M30.33,5.63v8.65a6.91,6.91,0,0,1-4.66,1.79H23.36v-.86a1.47,1.47,0,0,0-1.47-1.47H19.61a1.47,1.47,0,0,0-1.47,1.47v.86H12.19v-.86a1.47,1.47,0,0,0-1.47-1.47H8.44A1.47,1.47,0,0,0,7,15.21v.86H4.66A6.92,6.92,0,0,1,0,14.28V5.63a.92.92,0,0,1,.91-.91h28.5A.92.92,0,0,1,30.33,5.63Z"/></g><g id="_Grupo_3" data-name="&lt;Grupo&gt;"><g id="_Grupo_4" data-name="&lt;Grupo&gt;"><rect class="cls-2" x="8.73" y="15.5" width="1.69" height="3.87"/></g><g id="_Grupo_5" data-name="&lt;Grupo&gt;"><rect class="cls-2" x="19.9" y="15.5" width="1.7" height="3.87"/></g></g></g></g></g></svg>